<svg xmlns="http://www.w3.org/2000/svg" xmlns:xlink="http://www.w3.org/1999/xlink" viewBox="0 0 1021 758">
  <defs>
    <radialGradient id="radial-gradient" cx="268.84" cy="1713.36" r="8.45" gradientTransform="matrix(2.1, 0.22, 0.22, -2.11, -422.76, 3796.15)" gradientUnits="userSpaceOnUse">
      <stop offset="0" stop-color="#fff"/>
      <stop offset="0.32" stop-color="#fcfdfd"/>
      <stop offset="0.51" stop-color="#f4f7f8"/>
      <stop offset="0.66" stop-color="#e5ecef"/>
      <stop offset="0.76" stop-color="#d8e2e7"/>
    </radialGradient>
    <radialGradient id="radial-gradient-2" cx="249.94" cy="1710.92" r="8.09" gradientTransform="matrix(-2.2, 0.22, -0.23, -2.11, 1400.07, 3805.01)" xlink:href="#radial-gradient"/>
    <radialGradient id="radial-gradient-3" cx="235.92" cy="1696.11" r="16.51" gradientTransform="translate(1041.44 4024.83) rotate(180) scale(2.19 2.21)" gradientUnits="userSpaceOnUse">
      <stop offset="0.95" stop-opacity="0"/>
      <stop offset="1" stop-opacity="0.3"/>
    </radialGradient>
    <radialGradient id="radial-gradient-4" cx="254.44" cy="1697.33" r="15.8" gradientTransform="matrix(2.28, 0, 0, -2.17, -129.18, 3959.89)" xlink:href="#radial-gradient-3"/>
  </defs>
  <g id="Avatar">
    <path id="backhair" d="M560.42,196.41l-121.06-6.6s-30.51,213.34-30.51,220c0,0,122.76.84,175.08,0-.14-2.44-.34-5.42-.62-8.83-.23-2.78-.64-7.38-1.31-13-1-8.26-2-14.46-2.15-15.33C578.51,364.38,573.15,316.8,560.42,196.41Z" fill="#0c0601"/>
    <path id="lowerbody" d="M624,429.28c-8.91-15-20-17.69-29.12-20.59-9.39-3-28.71-4.7-39.25-6.8-10.18-2-34.36-8.55-34.64-19.93-.28-11.92,6.37-59.24,6.37-59.24H450.55S457.21,370,456.92,382c-.27,11.38-24.46,17.9-34.64,19.93-10.54,2.1-29.86,3.82-39.25,6.8-9.13,2.9-20.21,5.58-29.13,20.59-5.41,9.1-8.92,23.84-8.92,40.09h287.9C632.87,453.12,629.37,438.38,624,429.28Z" fill="#e6bc98"/>
    <path id="shirt" d="M573,583c2.28,9.82-17.53,23.69-21,21.15-4.33-3.11,16.35-30.2,24.47-77.72a150.61,150.61,0,0,0,2-19v0c0-.58.05-1.16.07-1.73l-.09-1.84v-.05L608,408l-9-17H577.82l-5.48-.82c-19.62-2.81-37.86-5.45-47.62-18.82,2.06-2.05,2.7-4.75.71-6.8,1-1.49,1-4.36-1.76-4.81l-.37-.05c-.3,2,.6,1.25-4.16,3.17a78.18,78.18,0,0,1-25.46,5.25h-.05a51.82,51.82,0,0,1-9.5,0h0c-7-.59-15.12-2.57-25.37-6.7-4.75-1.92-3.85-1.13-4.15-3.16-3.18.25-3.19,3.3-2.14,4.85-2,2.05-1.34,4.75.71,6.81-9.76,13.36-28,16-47.62,18.82-1.67.23-3.29.48-4.85.72l-1.23,116.1a150.27,150.27,0,0,0,2,19.43c8.11,47.39,29,74.43,24.47,77.73C422.34,605.36,403,592.39,405,583c3.05-14.42,55-14.16,87-14C525.58,569.17,569.84,569.39,573,583Z" fill="#738054"/>
    <path id="neckshade" d="M473.42,356.75c7.41,2.07,24.16,2.07,31.56,0,5.81-1.62,12.38-5,19-9.39,1.3-13.2,5.43-36.31,6.49-42.13q-2.78-.21-5.68-.38h-71q-3.24.19-6.3.42c1.06,5.85,5.12,28.57,6.45,41.78C460.74,351.55,467.47,355.09,473.42,356.75Z" fill="#a16e4b"/>
    <path id="face" d="M549.91,270.58c-1.56,6.09-3.35,23.54-3.35,23.54s-1.47,19.2-23.71,34.89l-13.48,9.12s-6,5.62-18.76,5.63-19-5.59-19-5.59L458.56,329c-21.54-15.85-22.79-35.06-22.79-35.06s-1.58-17.46-3-23.56-3-16.58-2.31-19.79,2.25-18.65,2.25-18.65c.77-26.51,12.24-36.2,12.24-36.2,12.12-13.61,33.88-16,43.6-16.37v-.22s33.45-1.26,49.62,16.75c0,0,11.66,9.78,12.2,36.29,0,0,1.49,15.46,2.14,18.67S551.47,264.49,549.91,270.58Z" fill="#e6bc98" stroke="#e6bc98" stroke-miterlimit="10"/>
    <g id="nose">
      <g id="mainshadow">
        <path id="shadow" d="M485.65,249.79s.09,12.61-.7,15.07c-1.75,5.39-9.48,17.89-8.5,21.36,1.52,5.38,9,5.78,12.78,6,3.62.18,11-.09,12.16-3.59.49-1.43-.55-5.07-.55-5.07s-3.36,3.53-11.25,3.14c-2.26-.11-5.92-2.38-6-5.57-.06-4.33,2.79-9.3,3.3-13.59C487.32,264.24,485.65,249.79,485.65,249.79Z" fill="#d4aa78"/>
        <path id="nostrils" d="M496.25,288.48c1.37,0,1.73.37,1.73.83s-.42,1.16-1.73.83a16.21,16.21,0,0,0-3.94-.2S494.89,288.48,496.25,288.48Zm-13,0c-1.36,0-1.73.38-1.73.83s.41,1.12,1.73.83a19.61,19.61,0,0,1,3.95-.2S484.6,288.49,483.23,288.48Zm17.6-5s1.89,2.19,1.5,4.51-4.19,3.24-4.19,3.24,2.64-1.72,3-3.8A23.37,23.37,0,0,0,500.83,283.53Zm-23.29-2.25s-1.38,3.07-1,4.93c.72,3.38,4.69,4.73,4.69,4.73a17,17,0,0,1-3.36-4.36A10.57,10.57,0,0,1,477.54,281.28Z" fill="#a16e4b"/>
      </g>
    </g>
    <g id="Mouth">
      <path id="smile" d="M462.65,305a8.66,8.66,0,0,1-.78-2.81c.18-1.07,2.45-3.2,2.45-3.2a29.14,29.14,0,0,0-1.59,3.22A14,14,0,0,0,462.65,305Z" fill="#a16e4b"/>
      <path id="colorlips" d="M465.83,303.41c4.77-.2,14.19-1.06,17.65-.79,1.78.14,4.71,1.72,6.64,2.26,1.34.38,6.43-1.41,7.8-1.41,3.59,0,11.37,2.2,15.55,3.07h0s-10.29,11.35-23.45,10.6c-14.91-.85-24.19-13.73-24.19-13.73Z" fill="#92002a" stroke="#830026" stroke-miterlimit="10.2" stroke-width="1.91"/>
      <path id="shade" d="M490.16,315c-5.89-.34-15.18-3.3-18.74-7.17,2.18.34,6.88.83,9.05,1.2,2.66.45,6.35,1.73,9.07,2,2.93.35,6.94-.41,9.81-.73,2.39-.26,6.09-1.14,8.48-1.23C503.81,312.16,495.85,315.27,490.16,315Zm9.56-8c2.14-.14,5.47-1.08,7.61-1.16-2.4-.85-6-.85-8.56-1.2-2.2-.31-5.55,1.19-7.73,1.38-2.45.23-5.37-2.07-7.65-2.3a43.52,43.52,0,0,0-10.09,1c2.07.29,6.6.74,8.64,1.17,2.51.53,6.11,1.67,8.71,1.82S497.08,307.12,499.72,306.94Z" fill="#a1103a"/>
      <path id="divide" d="M513.86,306.2c-.11-.22-.86-.42-1.13-.38-.5.08-.86.67-1.9.79-1.21.15-7.61,1.41-9.36,1.35-3.51-.11-7.54,1-10.89.78s-8.63-2-12.12-2.32c-1.73-.16-8.85-2.3-10-2.6-1-.26-1.1-.87-1.51-1.05a1.9,1.9,0,0,0-1.33.16c-.19.17-.14,1,0,1.17.33.53,1.56.76,2.45,1,1.25.31,8.47,2.48,10.25,2.64,3.45.32,8.8,2.25,12.18,2.44s7.49-1,11-.9c1.79.06,8.28-1.2,9.56-1.35a5.74,5.74,0,0,0,2.5-.69C513.71,307,514,306.43,513.86,306.2Z" fill="#64001d"/>
      <path id="chin" d="M489,322.61c7.59.23,10.49,5.31,10.49,5.31-9-3.33-20.56-.92-20.56-.92S481.42,322.38,489,322.61Z" fill="#d4aa78"/>
    </g>
    <g id="Eyes">
      <g id="right">
        <g id="svga-group-eyebrows-right-rotate">
          <g id="svga-group-eyebrows-right">
            <path id="SvgjsPath4225" d="M547.82,236.89c-12.26-19-45.93,6.48-47.85-1.5-.38-1.6.51-2.54,2-3.14C519.08,225.31,541.77,219.49,547.82,236.89Z" fill="#0c0601"/>
          </g>
        </g>
      </g>
      <g id="left">
        <g id="svga-group-eyebrows-left-rotate">
          <g id="svga-group-eyebrows-left">
            <path id="SvgjsPath4224" d="M431.3,236.91c12.27-19,45.93,6.48,47.85-1.5.38-1.6-.51-2.54-2-3.14C460,225.33,437.35,219.51,431.3,236.91Z" fill="#0c0601"/>
          </g>
        </g>
      </g>
      <path id="right-2" data-name="right" d="M534.11,238.35a24.83,24.83,0,0,0-16.38-1.19,26.65,26.65,0,0,0-8.36,3.12,23.51,23.51,0,0,0-5.92,5,21.09,21.09,0,0,1,5.48-5.05,29.07,29.07,0,0,1,8.71-3.46C523.07,235.4,529.15,235.7,534.11,238.35Z" fill="#a16e4b"/>
      <path id="left-2" data-name="left" d="M443.4,239.31a25.78,25.78,0,0,1,16.37-1.15,27.42,27.42,0,0,1,8.36,3,23,23,0,0,1,5.91,4.76,20.79,20.79,0,0,0-5.46-4.85,29.71,29.71,0,0,0-8.72-3.31C454.44,236.48,448.36,236.77,443.4,239.31Z" fill="#a16e4b"/>
      <g id="right-3" data-name="right">
        <path id="SvgjsPath4161" d="M534.58,244.39c.6-2.7-6.14-4.7-15-3.61s-15.08,6.54-14.27,9.29c.45,1.52,12.6,3.84,16.87,3.37S533.14,250.93,534.58,244.39Z" fill="url(#radial-gradient)"/>
      </g>
      <path id="left-3" data-name="left" d="M442.93,245.11c-.6-2.6,6.14-4.52,15-3.47s15.07,6.28,14.26,8.91c-.45,1.47-12.59,3.69-16.87,3.24S444.38,251.38,442.93,245.11Z" fill="url(#radial-gradient-2)"/>
      <path id="right-4" data-name="right" d="M534.58,244.43c.6-2.73-6.14-4.75-15-3.65s-15.08,6.61-14.27,9.38c.45,1.54,12.6,3.88,16.87,3.4S533.14,251,534.58,244.43Z" fill="url(#radial-gradient-3)"/>
      <path id="left-4" data-name="left" d="M442.93,245.07c-.6-2.57,6.14-4.47,15-3.43s15.07,6.2,14.26,8.81c-.45,1.45-12.59,3.65-16.87,3.2S444.38,251.26,442.93,245.07Z" fill="url(#radial-gradient-4)"/>
      <g id="irisright"  class="irisr">
        <g id="svga-group-eyesiris-right">
          <path id="SvgjsPath4215" d="M528.07,246.15a7.77,7.77,0,0,1-8,7.47c-4.45,0-8-3.34-8-7.47s3.6-7.47,8-7.47A7.77,7.77,0,0,1,528.07,246.15Z" fill="#321908" stroke="#120504" stroke-miterlimit="7.34" stroke-width="0.92"/>
          <path id="SvgjsPath4216" d="M515.35,249.65c1.17-.09.13-.39.13-.39-.58-.29-1.67-.73-1.67-1.14,0-1.29,1.89-1.62,0-2.13-2-1.71,1.57-1.68,1.54-1.74-1.31-3,.4-1.33,1.12-2.2,2.67-3.24.74.33,2.19,0,.53-.12-1-1.91,0-1.66a1.17,1.17,0,0,1,.89.72,4,4,0,0,0,1.35-.85c1,.28,1.71,1.61,1.4,1.36a12.26,12.26,0,0,0,1.72-.42s.1-.3.19,0c1.23,3.31,4.4,3.07.75,4,0,0-.24,0,.51.55,3.63,2.69-2.82,1.86.6,3.1.14-.13-2.05,1.2-2.05,1.57,0,.62-1.4,2.26-2.61,1.62-.68-.36-.78.75-1.18.24-.78-1-2.33-.05-1.76-1,.85-.64-.87.26-1.21.26-1.11,0,1.45-3.47,5.22-.89,1.11.75-1.16-1.79.84-1.79.2.06.14-.65.14-.85-1-.19,1.87,0,1.87-1.57.18,0,.68-.43-2.19,0a6.93,6.93,0,0,1,0-1.1c.15-.55,1.63-.37,1.21-.94l-1.07-2c-3.45-.52-1.48-.84-3.64-.43-.1.47-4.62,2.47-4.47,3.4s2.83,1.17.28,2.72C519.23,254.93,512.56,248,515.35,249.65Z" fill="#4f3230"/>
          <path id="SvgjsPath4219" d="M522.05,249.15a3,3,0,1,1-3-2.8A2.92,2.92,0,0,1,522.05,249.15Z" opacity="0.9" style="isolation: isolate"/>
          <path id="SvgjsPath4221" d="M526.47,246.68c-.66.62-2.27.13-3.59-1.1s-1.86-2.72-1.19-3.34,2.27-.12,3.59,1.1S527.14,246.07,526.47,246.68Z" fill="#fff" opacity="0.9" style="isolation: isolate"/>
        </g>
      </g>
      <g id="irisleft" class="irisl">
        <path id="SvgjsPath4208" d="M465.52,246.8c0,3.95-3.6,7.16-8,7.16s-8.05-3.21-8.05-7.16,3.61-7.17,8.05-7.17S465.52,242.83,465.52,246.8Z" fill="#321908" stroke="#120504" stroke-miterlimit="7.34" stroke-width="0.92"/>
        <path id="SvgjsPath4209" d="M452.8,250.15c1.18-.09.14-.37.14-.37-.58-.28-1.68-.71-1.68-1.1,0-1.23,1.9-1.55,0-2-2-1.65,1.56-1.61,1.54-1.67-1.31-2.84.4-1.28,1.12-2.12,2.66-3.1.74.32,2.19,0,.52-.11-1.05-1.83,0-1.59a1.17,1.17,0,0,1,.89.7,4.11,4.11,0,0,0,1.35-.82c1,.27,1.71,1.54,1.4,1.31a15.74,15.74,0,0,0,1.72-.41s.1-.29.19,0c1.23,3.18,4.4,2.95.75,3.87,0,0-.24,0,.51.53,3.63,2.58-2.82,1.78.6,3,.14-.12-2,1.16-2,1.51,0,.6-1.39,2.17-2.61,1.55-.67-.34-.77.72-1.17.23-.78-1-2.34,0-1.76-.93.85-.62-.88.25-1.21.25-1.11,0,1.45-3.33,5.22-.86,1.1.72-1.16-1.71.84-1.71.2.06.14-.62.14-.81-1-.18,1.86,0,1.86-1.51.18,0,.68-.42-2.19,0a7.81,7.81,0,0,1,0-1.06c.15-.52,1.63-.36,1.21-.9l-1.07-1.91c-3.45-.5-1.48-.81-3.63-.41-.11.45-4.62,2.37-4.48,3.26s2.84,1.12.28,2.61C456.68,255.22,450,248.53,452.8,250.15Z" fill="#4f3230"/>
        <path id="SvgjsPath4212" d="M459.5,249.8a3,3,0,1,1-3-2.69A2.86,2.86,0,0,1,459.5,249.8Z" opacity="0.9" style="isolation: isolate"/>
        <path id="SvgjsPath4214" d="M463.29,247.93c-.79.4-2.23-.47-3.2-2s-1.12-3-.32-3.4,2.23.47,3.2,1.95S464.09,247.53,463.29,247.93Z" fill="#fff" opacity="0.9" style="isolation: isolate"/>
      </g>
      <path id="left-5" data-name="left" d="M437.45,241.07s2.75,1,4.25.71a21.55,21.55,0,0,1-1.3-1.83,7.07,7.07,0,0,0,3.73,0,32.93,32.93,0,0,1,6.46-1.21,49.26,49.26,0,0,1,8,.48c4,.69,10.63,3,13.82,8.17a3.05,3.05,0,0,1,.31,1.09s-.06,1.75-.27,1.4c.21-.13-.16.44-.19.55.36-2.76-5.72-7.67-14.25-8.65-8.9-1-15.64.85-15,3.37,1.44,6.07,8.1,8,12.43,8.41,3,.31,9.82-.66,13.82-1.75l1.19-.36c-2.36,1.15-8.9,2.5-11.55,2.73-.88.08-2.65.12-3.54.1-7-.18-12-3.61-13.87-8.25a1.5,1.5,0,0,0-1-.79,56.78,56.78,0,0,1-6-2.06c2.74.41,4.12.77,6.27.07A7.53,7.53,0,0,1,437.45,241.07Z"/>
      <path id="right-5" data-name="right" d="M540.07,240.19s-2.76,1-4.26.73a22.41,22.41,0,0,0,1.3-1.9,6.74,6.74,0,0,1-3.73,0,32,32,0,0,0-6.46-1.26,47.28,47.28,0,0,0-8,.5c-4,.72-10.63,3.12-13.82,8.51a2.3,2.3,0,0,0-.31,1.14,12.47,12.47,0,0,0,.27,1.46c.07,0,.16.46.18.57-.35-2.88,5.73-8,14.27-9,8.9-1.06,15.64.88,15,3.51-1.44,6.33-8.1,8.3-12.44,8.77-3,.32-9.82-.69-13.81-1.82l-1.2-.38c2.37,1.19,8.9,2.6,11.56,2.85.88.08,2.65.12,3.53.1,7-.19,12-3.77,13.89-8.6a1.45,1.45,0,0,1,1-.83,54.08,54.08,0,0,0,6-2.14c-2.75.43-4.12.8-6.28.07A7.55,7.55,0,0,0,540.07,240.19Z"/>
    </g>
    <g id="shirtlines">
      <path d="M455.71,360.08s27.38,15,48,7.15c0,0,16.4-5.34,17.56-6.1a3.44,3.44,0,0,0,1.28-2.4s2.6-.15,1.48,2.41-23.89,11.57-36.69,9.68a113.61,113.61,0,0,1-25.62-6.65c-3.32-1.42-8.53-3.32-8.53-3.32S453.5,358.36,455.71,360.08Z" fill="#c49448"/>
      <path d="M455.19,368.37s28.54,14.95,50,7.15c0,0,17.09-5.34,18.3-6.1a3.4,3.4,0,0,0,1.34-2.4s2.71-.15,1.54,2.41-24.9,11.57-38.25,9.67a122.58,122.58,0,0,1-26.69-6.64c-3.46-1.43-8.9-3.32-8.9-3.32S452.89,366.65,455.19,368.37Z" fill="#c49448"/>
      <path d="M524.39,359.77a2.2,2.2,0,0,0-.37,0c-.3,2,.6,1.25-4.16,3.17a78.18,78.18,0,0,1-25.46,5.25c8.54-.81,15.66-3.62,24-6.29,3.57-1.16,4-1.39,4.42-4.28a2.43,2.43,0,0,1,1.33,1A1.66,1.66,0,0,1,524.39,359.77Z" fill="#c49448"/>
    </g>
  </g>
  <g id="leftarm" class="lefta">
    <path d="M470.64,570.26q-2.91,9.88-5.84,19.77L319.17,596.4c-1.81.16-13.51,1-22.81-7.91A29.72,29.72,0,0,1,287.44,569a390.15,390.15,0,0,1,22.45-51.59l-.14-.15a286.13,286.13,0,0,1,12.36-28.4c6.74-13.33,13-22.57,18.43-40.86,1.19-4.07,7.73-24.91,9.95-29.31,4.74-9.39,10.34-20.46,22.33-26.62a42,42,0,0,1,9.87-3.44c9.06-2.13,19.85-1.8,39,1.53L383.18,499.75l.39-1.29c-.18.44-.37.85-.53,1.24a290.71,290.71,0,0,1-28.59,51.53c12.74,1,33.47,8.46,33.47,8.46C398.16,563.4,420.08,567.61,470.64,570.26Z" fill="#738054"/>
    <path d="M295,557l-4,13s2,20,27,24l6-7S300,583,295,557Z" fill="#3b4423" stroke="#738054" stroke-miterlimit="7.34" opacity="0.46"/>
  </g>
  <g id="rightarm" class="righta">
    <path d="M698.05,573.09a29.7,29.7,0,0,1-8.92,19.45c-9.3,8.89-21,8.07-22.81,7.91l-145.63-6.36q-2.93-9.9-5.84-19.77c50.56-2.66,72.48-6.86,82.72-10.57,0,0,20.56-7.44,33.31-8.45a291.8,291.8,0,0,1-28.34-54.18l-.49-1.25c.11.43.24.86.35,1.3L567,390.59c19.21-2.8,30-2.82,39-.44a42.15,42.15,0,0,1,9.77,3.72c11.81,6.49,17.1,17.72,21.57,27.23,2.1,4.46,8,25.48,9.12,29.58,4.89,18.44,10.91,27.85,17.27,41.36a281.18,281.18,0,0,1,11.55,28.74l0,.05A392,392,0,0,1,698.05,573.09Z" fill="#738054"/>
    <path d="M691,560.31l4,13s-2,20-27,24l-6-7S686,586.31,691,560.31Z" fill="#3b4423" stroke="#738054" stroke-miterlimit="7.34" opacity="0.46"/>
  </g>
  <g id="Layer_8" data-name="Layer 8">
    <path id="shadow-2" data-name="shadow" d="M441.7,348.94c1.41-14.57.58-21.39-.94-33.79-3.16-25.83-4-42.35-4.92-69.33-.38-11.25-.78-22.9,4-33.78,4.33-10.17,13.75-18.8,25.21-23.08,9.28-3.46,17.82-3.41,27.29-3.41,11.38,0,19.32.74,26.3,4.5,19.69,10.63,21.45,25.76,23.88,46.7,2.65,22.81,1.35,25.31,1.38,47,0,49.73-3.67,57.46,3.62,99.76,8.09.34,32.44-168.7,5.62-196.07-15.32-15.66-107-7.34-119.23-.41-20.51,11.64,2.28,195.44,2.28,195.44C436.28,380.8,441.38,352.1,441.7,348.94Z" fill="#2a232b" opacity="0.1" style="isolation: isolate"/>
    <path id="color" d="M444.29,367.18c1-6.68,2.58-11.55,1.42-19.1-1-6.75-3.46-10.46-5.21-14.44-5.63-12.8-.05-19.08-.48-39.13-.33-15.39-3.63-12.8-6.72-41.14a89.27,89.27,0,0,1,1.11-29.23,69.89,69.89,0,0,1,3.1-10.44,48.77,48.77,0,0,1,26.38-27.08c9.7-4.07,18.63-4,28.54-4,11.9,0,20.21.86,27.51,5.27,20.61,12.49,22.44,30.25,25,54.83.84,8.18,1.66,14.41,1.68,23.1.06,20.86-4,23.37-5.08,41.26-1.58,25.82,6.06,33.2,3.9,68.05-.2,3.21-.43,5.82-.58,7.43A114.53,114.53,0,0,0,595,391c-.51-4.43-1.26-10.93-2.21-18.76-5-41.1-12.51-74.29-13.84-101.09-1.39-27.84-2.76-76.39-30.81-108.53-16-18.38-35-23.67-56-19a63.2,63.2,0,0,0-44.46,9.06c-21.45,13.66-39.36,42-41.65,65.86-2.94,30.65,2.84,44.5-3,75.19-4.26,22.27-6.7,32.83-9.2,46.88-1,5.64-1.87,12.2-4.24,27s-4,24.16-4.32,26.33c-5.47,33.61,4.36,85.29,10.23,85.09s2.73-50.71,20.39-55.91c10.59-3.11,21.28,13.43,28.46,9.79,6.73-3.42,4.35-21.52.48-38.67A86,86,0,0,1,444.29,367.18Z" fill="#0c0601"/>
    <path id="highlight1" d="M552.9,377a9.13,9.13,0,0,0,.48,4.19c1.21,3.29,4,4.59,3.79,5.13s-3.09,0-13.28-3.73c.42-1.79,1-4.34,1.53-7.43,1.39-7.69,4.19-23.24,1.79-41C545,317.63,540.41,314.76,542,302c.5-4,1.1-4.92,2.38-13.51a172.49,172.49,0,0,0,2.23-22.63c.18-8.51-.8-14.59-1.68-23.1-2.54-24.58-4.37-42.34-25-54.83-12.37-7.48-43.28-6.63-56.05-1.27a48.76,48.76,0,0,0-26.38,27.09c-5,12.78-4.61,26.44-4.21,39.66.93,31.66,1.84,51.06,5.14,81.38,1.59,14.55,2.46,22.56,1,39.66-.33,3.71-5.05,37.4-5.1,39.34l-9.89-.44c.43-12.87,7.12-25.73,8.24-38.6,2.36-54.17-14.2-106.09-1.18-161.4C435,199.77,441,188.48,454,181.71c11.2-5.94,32-7.43,39-3.18.12-.69.24-1.38.35-2.11,1.85-10-1.48-14,1.7-20.58-2.45,6.26.27,10.24-.15,17.21a36,36,0,0,1-1,5.24c9.09-1.8,21.42-2.6,32.3,3.42C546.53,193,549,223.26,553.85,283.79a521.82,521.82,0,0,1-.52,88.66C553.16,374.35,553,375.92,552.9,377ZM433.08,191.06c9-11.34,23-21.81,37.72-24,3.61-.54,6.95-.68,6.73-.67-14.87.47-27.73,5.13-38.95,16.67-13.28,13.21-12.67,24.64-12.73,27.34C426.35,203.39,427.29,199.56,433.08,191.06Zm68.72-20.32a29.59,29.59,0,0,1,10-1.24c18.94.81,42,20.67,44.63,48,.7,6.73,1.48,27.46.49,12a93.5,93.5,0,0,0-2.67-18.17c-5.07-20.83-28.18-45.51-50.42-41Zm-82.19,72.73c1,30.64,3.35,51.75,2.73,66.31-1.79,18.27-3.8,33.24-3.8,33.24,0,.47.09-1.89.37-5.76C421.93,297.44,419,292,419.61,243.47Zm139.45,2c.5,8.44,2.7,44.48,3,52.11.28,6,.32,45.92.46,47.79C562.59,346.05,560,313.45,559.06,245.48Zm9.35,10.37c1.13,16.43,8.42,82.26,17.57,113.33.17.51-.76-2.06-2.26-6.32C572.24,328,569.72,291.66,568.41,255.85Zm-152.7,22.67c-2,6.92-.29,11.06-.22,18-.35,16.1-6.38,34.67-8.56,44-2.55,9.85-3.46,37.23-3.46,38.36s-1-29.39,3.8-47.68C419.9,285.6,412,297.7,415,280.49Zm82.14-125.71a52.21,52.21,0,0,1,8.54-1.33c19.58-1.88,32.8,12.4,35.74,14.54l-2.1-1.79C522.43,150.84,511.22,150.65,497.85,152.81Zm-60,27.05c8.15-7.76,17.71-18.36,37.24-19.1a28.36,28.36,0,0,1,12.24,1.9s-10.49-5.16-30.95,3.6C449.78,168.92,442.39,175.86,437.84,179.86Z" fill="#3f2716" opacity="0.7"/>
    <path id="highlight2" d="M592.89,374.36c-14.37-46.92-18.32-96.08-23-145.25-3.83-32-18.25-69.17-50-82.11-3.45-1.41-33.36-3.19-48.16.85-50.87,11.28-65.08,66.49-61.52,112.86,2.69,35-11.33,76.31-21.07,114.84,1.09-32,8.61-54.49,13.85-81.86,5.89-30.69.11-44.54,3-75.19,2.29-23.89,20.2-52.2,41.65-65.86a63.2,63.2,0,0,1,44.46-9.06c15.47-3.41,29.82-1.43,42.71,7.17l.08,0a69,69,0,0,1,13.22,11.85c28.05,32.14,29.42,80.69,30.81,108.53C581.14,313.89,591.14,337.29,592.89,374.36ZM435.7,176.84c-7.3,8.51-2.94,3.13,4.49-4,21.69-18.58,35.47-19.68,47.67-17.09C467.39,150.56,449.31,161.56,435.7,176.84Zm68.81-17.92c13.89-4.43,30.77-1.69,48.5,24.24,13.19,20.5,13.31,46.07,14.07,49.57.08.5-.37-2-1-6.19-1.59-9.52-4.34-33.61-27.43-58C532.56,162,519.3,154.88,504.51,158.92Zm55.63,61.83c3.68,33.55,5.94,82.19,5.94,82.19.07.77-.86-7.75-1.78-17.05C560.93,251.81,562.51,255.88,560.14,220.75ZM556.31,300c.4,24.36.07,19.37,2.84,54.29,2.4,18.86,3.17,22.21-.56,1.18C555.17,335.29,555.77,321.25,556.31,300Zm11.85,8.7c4.83,33.77,4.34,33.53,5.5,51.59,1.42,18.27,1.93,21.13-.61,1.11C571.55,350.17,570.74,334.82,568.16,308.67ZM427.71,189.59c-7.42,13.75-9.48,25-11,40.38-2.43,22.21-.22,23.88-1.66,38.51a7.46,7.46,0,0,1,.05-1C415.71,249,410.34,218.81,427.71,189.59Zm13.68-1.72c-7.47,6.74-11.44,19.31-14,29.1-5.4,21.6-2.64,94.71-4.31,41.38-.77-20-1.47-36.56,9.54-58.85C435,194.66,437.59,190.89,441.39,187.87ZM424.91,301c.2,12.86,1.63,14.29,2.95,29.21,1.55,14.43-2.8,37.48-2.95,39.94-.24,1.74,3.19-26,1.46-45.8C424.56,305.8,424.7,309.32,424.91,301Zm-8.05,17.36c-3.5,13.32-2.32,14.88-6.32,68.18C410.45,387.64,410.2,340,416.86,318.33ZM449.5,179.85c1.18-.62,18.1-12.48,35.07-6.9,1.56.47,2.59,1,2.77,1a33.85,33.85,0,0,0-14.48-1.71C460.46,173.24,451.47,178.9,449.5,179.85Zm48.43-12.22a31.49,31.49,0,0,1,10.95-3.08c16.84-1.91,27.35,11.18,28.54,12.09a39.28,39.28,0,0,0-15.63-9.75,29,29,0,0,0-3.11-.92,31.35,31.35,0,0,0-4.61-.83C507,164.53,503.68,165.41,497.93,167.63Z" fill="#2b1811"/>
  </g>
  <g id="laptop">
    <g>
      <rect x="307.45" y="609.22" width="374" height="29" rx="6.26" fill="#afafaf"/>
      <path d="M650.92,605.22H335.86a7.91,7.91,0,0,1-7.9-7.39q-6-91.1-12-182.17a7.92,7.92,0,0,1,7.9-8.44H660.12a7.92,7.92,0,0,1,7.91,8.32q-4.6,91.08-9.2,182.17A7.92,7.92,0,0,1,650.92,605.22Z" fill="#afafaf"/>
      <path d="M309.45,629.22v-15c1-3,3-3,3-3l36-1s87.87-.61,89.43.69h0c0,.15-28.3-.48-57.44,3.3-19.6,2.55-37.52,6.83-55,11C318.83,626.8,313.32,628.21,309.45,629.22Z" fill="#6d6d6c" opacity="0.51"/>
      <path d="M327.45,466.22c-.82,0-2.1-8-4-49a10.85,10.85,0,0,1,4-5c4.42-2.93,28-.93,37-.89,10.21,0,25.49,0,44.13-.15,28.72-.17,44.85-.41,44.87,0s-8.14.75-27,2c-38.92,2.58-47.12,3.61-57,6-16.65,4-26.07,6.45-33,15C325.63,447.57,328.69,466.21,327.45,466.22Z" fill="#6d6d6c" opacity="0.51"/>
    </g>
  </g>
</svg>
