<svg xmlns="http://www.w3.org/2000/svg" viewBox="0 0 958 848">
  <g id="shape1" class="circle1">
    <path d="M828.68,421.43c12.7,57.82,11.16,149.16-42,197-36.46,32.82-65.13,16.29-143,47-98.84,39-95.7,82.59-162,103-129.36,39.82-309.53-74.44-312-163-.86-31,20.39-46.8,13-89-8-45.46-37.7-56-48-95-3.05-11.55-10.43-48.39,34-123,15.52-26.06,153.73-252.1,313-224,33.6,5.93,70.53,38,143,102C748.89,286.05,811,340.86,828.68,421.43Z" fill="#be996e" stroke="#be996e" stroke-miterlimit="10" opacity="0.72"/>
  </g>
  <g id="shape2"  class="circle2">
    <path d="M823.8,431.78c5.5,20,.23,55.26-112.89,151-143,121.08-214.52,181.61-277,162.93-90.19-27-54.89-167.24-183.76-238-62.82-34.49-127.9-32.27-145.79-81.92-11.81-32.77,4.85-66.88,10-78.35,22.83-51.37,73-71.87,114.56-93.28,145.07-74.65,121.24-128.84,205-148.29,87-20.17,202.88,12.73,245.57,84.22C713.34,246.87,679,291,723.87,349.4,764.09,401.77,813.59,394.74,823.8,431.78Z" fill="#606060" opacity="0.86"/>
  </g>
  <g id="shape3"  class="circle3">
    <path d="M670,540c-15.83,13.3-29.15,8.62-69.24,12.92C448.48,569.27,403.15,662.29,349.37,637.5c-51.89-23.91-8.33-109.86-79.76-247.73-8.35-16.12-22.77-41.63-17.74-72.94,6-37.24,37.79-72.17,75.15-84,40.25-12.75,55.77,11.2,114.63,13,74.34,2.27,90.15-34.69,130.89-26.49C669.91,238.92,739,482.06,670,540Z" fill="#be996e" stroke="#be996e" stroke-miterlimit="10"/>
  </g>
</svg>
