<svg id="Layer_1" data-name="Layer 1" xmlns="http://www.w3.org/2000/svg" viewBox="0 0 183 124">
  <path d="M152.82,43v57.76a4.77,4.77,0,0,1-4.75,4.75H35.31a4.76,4.76,0,0,1-4.75-4.75V43a4.75,4.75,0,0,1,4.75-4.75H63.37q2.38-6.7,4.78-13.4a7,7,0,0,1,1.91-2.34A6.58,6.58,0,0,1,73,21.2h34.65a6.57,6.57,0,0,1,2.94,1.28,7.12,7.12,0,0,1,2.26,3.06l4.86,12.68h30.36A4.76,4.76,0,0,1,152.82,43Z" fill="#738054"/>
  <rect x="30.56" y="95.59" width="122.26" height="9.89" rx="4.21" fill="#e1d5b8"/>
  <rect x="30.56" y="94.2" width="122.26" height="5.93" fill="#2d1a10"/>
  <circle cx="92.68" cy="71.45" r="30.27" fill="#1a1a1a"/>
  <ellipse cx="92.77" cy="71.55" rx="27" ry="26.81" fill="#1a1a1a"/>
  <circle cx="92.9" cy="71.39" r="22.77" fill="#333" stroke="#afafaf" stroke-miterlimit="7.34" stroke-width="8"/>
  <circle cx="92.77" cy="71.52" r="16.29" fill="#e1d5b8"/>
  <ellipse cx="92.63" cy="71.45" rx="13.05" ry="13.06" fill="#1a1a1a"/>
  <circle cx="92.82" cy="71.65" r="8.5" fill="#e1d5b8"/>
  <path d="M90.7,50.88s17.41-2.38,22.55,16.62a26.4,26.4,0,0,0-5.54-8.31A27.27,27.27,0,0,0,100.59,54,30.83,30.83,0,0,0,90.7,50.88Z" fill="#f2f2f2"/>
  <path d="M89.65,92.07S72.22,89.81,72.22,70.13A26.7,26.7,0,0,0,75.4,79.6a27.31,27.31,0,0,0,5.53,6.83A31,31,0,0,0,89.65,92.07Z" fill="#f2f2f2"/>
  <circle cx="136" cy="47.52" r="4.15" fill="#1a1a1a"/>
  <rect x="79.22" y="29.51" width="22.95" height="6.73" rx="2.87" fill="#e1d5b8"/>
  <rect x="40.45" y="32.68" width="18.6" height="5.54" fill="#1a1a1a"/>
  <rect x="124.72" y="35.45" width="18.99" height="2.77" fill="#1a1a1a"/>
  <rect id="_Slice_" data-name="&lt;Slice&gt;" x="4.44" y="25.95" width="46.69" height="0.4" fill="none"/>
  <rect id="_Slice_2" data-name="&lt;Slice&gt;" x="145.69" y="50.88" width="17.41" height="3.96" fill="none"/>
  <rect id="_Slice_3" data-name="&lt;Slice&gt;" x="29.37" y="51.27" width="0.79" height="13.45" fill="none"/>
  <path d="M31,57h6.65c.47,0,1.4.74,1.4,1.12V81.49a2.06,2.06,0,0,1-1.38,1.37H31" fill="none" stroke="#2d1a10" stroke-miterlimit="10"/>
  <path d="M153,83h-7.65c-.53,0-1.59-.75-1.59-1.12V58.37c0-.45,1-1.37,1.57-1.37H153" fill="none" stroke="#2d1a10" stroke-miterlimit="10"/>
  <rect x="42.43" y="32.68" width="2.37" height="5.54" fill="#333"/>
  <rect x="44.8" y="32.68" width="2.37" height="5.54" fill="#333"/>
  <rect x="47.18" y="32.68" width="1.58" height="5.54" fill="gray"/>
  <rect x="48.76" y="32.68" width="0.79" height="5.54" fill="#b3b3b3"/>
  <path d="M34.71,39.49l28.49-.4Q65.76,32.57,68.34,26a7.13,7.13,0,0,1,.79-1.18c2.83-3.45,8-3.27,9.5-3.17h24.13c5.65,0,8.11,2.09,9.1,3.17s1.39,2.12,3.57,7.91l2.37,6.33,30.86.4" fill="none" stroke="#738054" stroke-miterlimit="10"/>
</svg>
