<svg id="Layer_1" data-name="Layer 1" xmlns="http://www.w3.org/2000/svg" viewBox="0 0 174 150">
  <g>
    <rect x="22.44" y="25.14" width="126.56" height="97.04" rx="16.89" fill="#738054"/>
    <path d="M64.65,50.63C46.64,64,36.86,71.49,36.86,71.49l29,19" fill="none" stroke="#e6e6e6" stroke-miterlimit="10" stroke-width="9"/>
    <path d="M107.31,91.33c18.19-13.4,28.07-20.86,28.07-20.86l-29.33-19" fill="none" stroke="#e6e6e6" stroke-miterlimit="10" stroke-width="9"/>
    <line x1="98.74" y1="34.13" x2="69.5" y2="112.88" fill="#a16e4b" stroke="#e6e6e6" stroke-miterlimit="10" stroke-width="9"/>
  </g>
  <path d="M25,57c-.28-8.77-.94-12.73,1-18a25,25,0,0,1,4-7,28.62,28.62,0,0,1,5-3c8-2,20-2,20-2H78a62.58,62.58,0,0,0-16,3A57,57,0,0,0,41.57,41.24C29.65,51.78,26.12,65.39,25,71,25.19,65,25.1,60.21,25,57Z" fill="#593712" opacity="0.52"/>
  <path d="M145.53,101.85c.15,4.72.51,6.85-.54,9.69a13.26,13.26,0,0,1-2.15,3.77,15.43,15.43,0,0,1-2.69,1.61A55.11,55.11,0,0,1,129.38,118H117a33.55,33.55,0,0,0,8.61-1.62,30.32,30.32,0,0,0,11-6,29,29,0,0,0,8.92-16C145.43,97.53,145.48,100.12,145.53,101.85Z" fill="#593712" opacity="0.52"/>
</svg>
