<svg id="Layer_1" data-name="Layer 1" xmlns="http://www.w3.org/2000/svg" viewBox="0 0 1920 1080">
  <path d="M1895.5,734.57S1515,469.6,1180,626.1s-783,24.22-783,24.22S23,553.25-24.5,565V1103.5h1920Z" fill="#3b4423" stroke="#3b4423" stroke-miterlimit="10"/>
  <path d="M0,729.88s380.5-251.47,715.5-103,783,23,783,23,374-92.13,421.5-81V1080H0Z" fill="#738054" stroke="#738054" stroke-miterlimit="10"/>
  <path d="M-.5,659.29a1798.9,1798.9,0,0,1,411,41.71C639.48,751.49,650,801.81,810.64,829c306.41,51.86,341.78-118.79,690.8-90,200.57,16.54,366.59,87.56,457.4-2,24.2-23.86,35.44-51.61,41.16-71.59V1048.5H-.5Z" fill="#3b4423" stroke="#3b4423" stroke-miterlimit="10" opacity="0.32"/>
  <path d="M0,690.79A1659.46,1659.46,0,0,1,394.5,732.5c219.72,50.49,229.83,100.81,384,128,294.08,51.86,328-118.79,663-90,192.51,16.54,351.84,87.56,439-2,23.22-23.86,34-51.61,39.5-71.59V1080H0Z" fill="#3b4423" stroke="#3b4423" stroke-miterlimit="10"/>
</svg>
