<svg id="Layer_1" data-name="Layer 1" xmlns="http://www.w3.org/2000/svg" viewBox="0 0 1920 566">
  <path d="M1984,21.29A1798.9,1798.9,0,0,0,1573,63c-228.94,50.49-239.47,100.81-400.1,128-306.41,51.86-341.78-118.79-690.8-90-200.57,16.54-366.59,87.56-457.4-2C.46,75.14-10.78,47.39-16.5,27.41V410.5H1984Z" fill="#3b4423" stroke="#3b4423" stroke-miterlimit="10" opacity="0.32"/>
  <path d="M1895.5,269.57S1515,4.6,1180,161.1s-783,24.22-783,24.22S23,88.25-24.5,100V638.5h1920Z" fill="#3b4423" stroke="#3b4423" stroke-miterlimit="10"/>
  <path d="M.5,261.38S381,9.91,716,158.43s783,23,783,23,374-92.13,421.5-81V611.5H.5Z" fill="#738054" stroke="#738054" stroke-miterlimit="10"/>
</svg>
