<svg id="Layer_1" data-name="Layer 1" xmlns="http://www.w3.org/2000/svg" viewBox="0 0 174 150">
  <g>
    <path d="M78.64,101a88.36,88.36,0,0,1-9.25-8.1C66.21,89.62,61.5,85,54,78.31a7.38,7.38,0,0,0,3.36-1.61,7.54,7.54,0,0,0,2.5-4.42c1.33,1.5,3.31,3.75,5.69,6.52,4.89,5.66,7.37,8.55,9.11,10.91,4.18,5.69,8.31,12.91,7.43,13.58C81.8,103.51,81.05,103,78.64,101Z" fill="#84725e"/>
    <path d="M90.52,37.52a85.12,85.12,0,0,1,9.82,7.41c3.33,3,8.34,7.22,16.44,13.43-2.43.67-4.45,2.34-5.43,6.58A185.32,185.32,0,0,1,97.53,50.35c-4.06-4.79-11.49-14-10.62-14.84C87.12,35.32,87.77,35.63,90.52,37.52Z" fill="#84725e"/>
    <path d="M88.82,35.74a108.81,108.81,0,0,1-8.11,8.73c-3.2,3-7.69,7.44-14.4,14.52a7,7,0,0,0-.6-3.24,4.39,4.39,0,0,0-2.95-2.44c1.43-1.24,3.57-3.1,6.19-5.34,5.37-4.6,8.1-6.94,10.28-8.57,5.25-3.92,11.68-7.78,12-6.93C91.37,32.75,90.8,33.46,88.82,35.74Z" fill="#84725e"/>
    <rect x="73.64" y="27.84" width="27.86" height="94.01" rx="9.73" fill="#6d6d6c"/>
    <circle cx="87.57" cy="108.71" r="5.31" fill="#e1d5b8"/>
    <path d="M59.7,72.12A7.38,7.38,0,0,1,53.84,78l-3.21-7.82,1.4-1.4Z" fill="#84725e"/>
    <path d="M50.43,68.79l.67,1.8,1.33-1.29Z" fill="#84725e"/>
    <rect x="64.06" y="76.2" width="2.41" height="5.01" rx="0.84" transform="translate(-34.21 55.06) rotate(-36.96)" fill="#84725e"/>
    <rect x="67.5" y="80.39" width="2.41" height="5.01" rx="0.84" transform="translate(-36.04 57.97) rotate(-36.96)" fill="#84725e"/>
    <circle cx="61.85" cy="58.16" r="5.61" fill="#84725e"/>
    <text transform="translate(57.82 60.16)" font-size="6.21" fill="#e1d5b8" font-family="Alenia">JS</text>
    <path d="M111.7,68.76s-1-4.77,1.59-7.63l4.54,7.63Z" fill="none" stroke="#333" stroke-miterlimit="10" stroke-width="0.75"/>
    <path d="M114.64,59.37s3.64-3.23,7.39-2.48l-4.3,7.77Z" fill="none" stroke="#333" stroke-miterlimit="10" stroke-width="0.75"/>
    <path d="M131.9,64.48s.76,4.81-1.89,7.57l-4.23-7.81Z" fill="none" stroke="#333" stroke-miterlimit="10" stroke-width="0.75"/>
    <path d="M124.79,57s4.59,1.62,5.75,5.27h-8.89Z" fill="none" stroke="#333" stroke-miterlimit="10" stroke-width="0.75"/>
    <path d="M128.66,74.16s-3.72,3.14-7.46,2.29l4.51-7.66Z" fill="none" stroke="#333" stroke-miterlimit="10" stroke-width="0.75"/>
    <path d="M118.63,76.13s-4.58-1.64-5.73-5.3l8.89,0Z" fill="none" stroke="#333" stroke-miterlimit="10" stroke-width="0.75"/>
  </g>
</svg>
