<svg id="Layer_1" data-name="Layer 1" xmlns="http://www.w3.org/2000/svg" viewBox="0 0 194 137">
  <g>
    <rect x="34.12" y="31.35" width="126.65" height="81" rx="10.4" fill="none" stroke="#b3b3b3" stroke-miterlimit="10" stroke-width="11"/>
    <rect x="36.33" y="34.3" width="121.87" height="75.11" rx="4.54" fill="#738054"/>
    <rect x="38.17" y="36.87" width="12.89" height="70.32" rx="1.39" fill="#e6e6e6" stroke="#e6e6e6" stroke-miterlimit="10" stroke-width="8"/>
    <g opacity="0.28">
      <line x1="75.04" y1="34.3" x2="75.04" y2="109.41" fill="none" stroke="#b3b3b3" stroke-miterlimit="10" stroke-width="0.75"/>
      <line x1="96.54" y1="34.3" x2="96.54" y2="109.41" fill="none" stroke="#b3b3b3" stroke-miterlimit="10" stroke-width="0.75"/>
      <line x1="117.33" y1="34.3" x2="117.33" y2="109.41" fill="none" stroke="#b3b3b3" stroke-miterlimit="10" stroke-width="0.75"/>
      <line x1="137.76" y1="34.3" x2="137.76" y2="109.41" fill="none" stroke="#b3b3b3" stroke-miterlimit="10" stroke-width="0.75"/>
      <line x1="157.48" y1="54.56" x2="56.04" y2="54.56" fill="none" stroke="#b3b3b3" stroke-miterlimit="10" stroke-width="0.75"/>
      <line x1="158.19" y1="76.87" x2="56.04" y2="76.87" fill="none" stroke="#b3b3b3" stroke-miterlimit="10" stroke-width="0.75"/>
      <line x1="158.19" y1="95.83" x2="56.04" y2="95.83" fill="none" stroke="#b3b3b3" stroke-miterlimit="10" stroke-width="0.75"/>
    </g>
    <path d="M102.17,75.91l41.25-29.18L142.9,46,99.83,72.48Z" fill="#e6e6e6" stroke="#e6e6e6" stroke-linejoin="round" stroke-width="7"/>
    <path d="M98.25,78.9A11.51,11.51,0,0,1,99,83.58,12,12,0,0,1,98.64,86,14.14,14.14,0,0,1,95,92.73,13.57,13.57,0,0,1,89.69,96a22.56,22.56,0,0,1-3.9.78s-1.54.2-3.11.26a39.19,39.19,0,0,1-9.35-1c4.69-2.54,5.85-4.81,6-6.49s-1-2.52-.78-5.19a11.68,11.68,0,0,1,1.82-5.2,10.67,10.67,0,0,1,7.53-5.45,10,10,0,0,1,4.41-.26C96.07,74.27,97.93,78.2,98.25,78.9Z" fill="#e6e6e6"/>
    <circle cx="44.24" cy="69.46" r="4.97" fill="#2d1a10"/>
    <circle cx="44.61" cy="43.32" r="4.97" fill="#2d1a10"/>
    <circle cx="44.61" cy="56.2" r="4.97" fill="#754c24"/>
    <path d="M141,44.63s2.65-1.17,3.76.67a3.41,3.41,0,0,1,0,3.5L127.42,61.13Z" fill="gray" stroke="#e6e6e6" stroke-linejoin="round" stroke-width="0.75"/>
    <path d="M98.36,81.24S99.47,94.13,87,96c0,0-4,.37-5.89.37,0,0,7.36-1.48,9.2-4.79s1.11-9.2,1.48-9.94S95.05,76.45,98.36,81.24Z" fill="gray" stroke="#e6e6e6" stroke-linejoin="round"/>
  </g>
</svg>
