<svg xmlns="http://www.w3.org/2000/svg" viewBox="0 0 1920 1080">
  <g id="laptop">
    <path d="M-8.5,326.48C55.82,247.87,115.1,224.75,157,218c129.64-20.88,194.85,98.55,376,90,56.64-2.67,67.88-15.18,137-14,104.14,1.78,178,31.86,208,42,80.64,27.24,213.39,35,438-63,70.62-31.94,171.72-62.47,275-30,39.81,12.52,55.91,26.84,99,44,60.76,24.2,153.15,45.25,286,24V836.61c-110.26,80.15-203.25,100.53-280,92.39-131.17-13.91-149.72-104.2-296-120-108.07-11.67-123.47,34.86-304,37-121.14,1.44-111.83-19.54-189-9-146.59,20-189.71,97-285,73-52.25-13.18-43.76-37.45-125-66-33.14-11.64-97.43-33.44-172-21-65.86,11-74.38,37.78-135,57-83.59,26.5-204,29.84-236-23C-89,786-8.5,326.48-8.5,326.48Z" fill="#738054"/>
    <path d="M1909.79,792.87c-62.49,80.06-121.22,104.55-163,112.26-129.12,23.87-197.07-94-378-81.31-56.56,4-67.51,16.74-136.64,17.16-104.16.62-178.69-27.76-208.92-37.2-81.24-25.37-214.14-30-436.43,73.08C517,910.43,416.63,943.28,312.64,913.19c-40.09-11.59-56.52-25.54-100-41.7C151.34,848.7,58.5,829.78-73.83,854.09L-85.94,328.62C22.44,245.94,114.94,223.43,191.85,229.8c131.46,10.88,152.09,100.72,298.69,113.14,108.31,9.18,122.63-37.69,303.07-44,121.07-4.23,112.25,17,189.15,4.64C1128.85,280.19,1170.19,202.21,1266,224c52.54,12,44.61,36.44,126.49,63.1,33.4,10.88,98.18,31.19,172.44,17,65.59-12.5,73.49-39.48,133.65-60.09,83-28.42,203.26-34.54,236.47,17.55C1979.67,331.61,1909.79,792.87,1909.79,792.87Z" fill="#738054" opacity="0.62"/>
  </g>
</svg>
