<svg id="Layer_1" data-name="Layer 1" xmlns="http://www.w3.org/2000/svg" viewBox="0 0 900 800">
  <path d="M812.27,427.14C828.8,474.15,794.54,542.46,754,553c-25.65,6.67-38.85-13.68-75-7-30.71,5.68-50.87,25.86-61,36-43.36,43.41-27.07,78.49-58,115-34.9,41.19-103.25,52.72-154,39-70.81-19.15-105.31-86.78-126-128-28.68-57.15-13.25-73.2-41.41-104.88C188.32,446.54,110.9,471.43,92.8,421.19c-11.81-32.77,4.85-66.87,10-78.35,25.94-58.36,102.55-47.19,114.56-93.27,5.49-21.06-8.25-26.5-2.31-56.57,1.1-5.56,9.65-48.82,42-66,39.8-21.13,75.06,18.75,130-3,17.33-6.86,14.73-11.63,35.35-22.72C470.17,75.56,552.73,61.4,610,101c29.12,20.13,41,46.79,57.93,84.49,36.43,81.39,8.62,112.67,44.41,159.27C751.46,395.7,796.67,382.78,812.27,427.14Z" fill="#606060" opacity="0.86"/>
</svg>
