<svg id="shape1" xmlns="http://www.w3.org/2000/svg" viewBox="0 0 900 800">
  <path d="M799.68,397.43c13,40.3,13.77,69.19,10.82,92.07A180.09,180.09,0,0,1,805,516.26c-11.84,40.56-35.63,66-47.29,78.17-9.83,10.27-34,35.53-70.18,49.07-60.62,22.7-85.71-13.4-142-2-75,15.18-69.17,87-145,109-80.76,23.38-160.85-36.85-177-49-22.7-17.07-79.9-59.38-82.82-120.07-1.78-37,20-49.19,13-89-9-51.12-43.45-56.08-48-95C99.8,347,155.88,333,194.5,248.5c34.83-76.21,4.82-98.94,38-143,46.94-62.33,148.94-72.56,220.18-55.07,15.46,3.8,114.77,28.19,143,102,14.78,38.64.88,66.78,24.82,89.07,25.93,24.14,53.15,1.29,94.67,20.43C763.35,284.14,781.37,340.58,799.68,397.43Z" fill="#be996e" stroke="#be996e" stroke-miterlimit="10" opacity="0.72"/>
</svg>
