<svg id="Layer_1" data-name="Layer 1" xmlns="http://www.w3.org/2000/svg" viewBox="0 0 900 800">
  <path d="M627.11,503.72c-15.72,9.72-33.78,10.92-69.24,12.92-54,3.05-68.15-3.79-93.37-2.14-83.35,5.46-98.87,91.36-158.07,86.72C258.57,597.47,211,536.78,212.5,486.5c1.45-48.63,48-60.83,45-108-3-46.66-49.86-55.48-48.57-97.95,1.14-37.25,38.59-72.42,75.15-84,40.26-12.75,55.78,11.2,114.64,13,72.51,2.21,98.66-44.95,130.88-26.49,24.7,14.14,14,41.81,51.9,79.45,21.8,21.64,28.89,16,48.81,36.07,21.46,21.61,44,59.08,43.19,104.93C673.35,412.34,671.37,476.35,627.11,503.72Z" fill="#be996e" stroke="#be996e" stroke-miterlimit="10"/>
</svg>
